<svg xmlns="http://www.w3.org/2000/svg" viewBox="0 0 24 24" fill="none" stroke="currentColor" stroke-width="2" stroke-linecap="round" stroke-linejoin="round" width="24" height="24" role="img" aria-label="Open GeneVariate assistant">
  <!-- speech bubble with tail -->
  <path d="M7 4 H17 a3 3 0 0 1 3 3 V13 a3 3 0 0 1 -3 3 H10 l-3 3 V16 a3 3 0 0 1 -3 -3 V7 a3 3 0 0 1 3 -3 Z"/>
  <!-- DNA double helix inside the bubble -->
  <path d="M10 7.5 C 14.5 9 14.5 12 10 13.5"/>
  <path d="M14 7.5 C 9.5 9 9.5 12 14 13.5"/>
  <path d="M10.7 9.4 H13.3"/>
  <path d="M10.7 11.6 H13.3"/>
</svg>
